<?xml version="1.0" standalone="no"?><!DOCTYPE svg PUBLIC "-//W3C//DTD SVG 1.1//EN" "http://www.w3.org/Graphics/SVG/1.1/DTD/svg11.dtd"><svg t="1545025905462" class="icon" style="" viewBox="0 0 1024 1024" version="1.1" xmlns="http://www.w3.org/2000/svg" p-id="926" xmlns:xlink="http://www.w3.org/1999/xlink" width="200" height="200"><defs><style type="text/css"></style></defs><path d="M192 608c0 17.6 14.4 32 32 32h235l-192-192H224c-17.6 0-32 14.4-32 32v128zM512 0C229.2 0 0 229.2 0 512s229.2 512 512 512 512-229.2 512-512S794.8 0 512 0z m0 896c-211.8 0-384-172.2-384-384 0-82.8 26.6-159.4 71.4-222.2l534.8 534.8C671.4 869.4 594.8 896 512 896z m90.4-384H768v64h-101.6l-64-64z m222.2 222.2L730.4 640H800c17.6 0 32-14.4 32-32v-128c0-17.6-14.4-32-32-32H538.4L289.8 199.4C352.6 154.6 429.2 128 512 128c211.8 0 384 172.2 384 384 0 82.8-26.6 159.4-71.4 222.2zM641.2 256c-31.2 0-57.2-22.4-62.8-51.8-1.4-7.2-8-12.2-15.4-12.2h-32.4c-10 0-17.4 9-16 18.8 9.2 61.8 62.4 109.2 126.6 109.2 31.2 0 57.2 22.4 62.8 51.8 1.4 7.2 8 12.2 15.4 12.2h32.4c10 0 17.4-9 16-18.8-9.2-61.8-62.4-109.2-126.6-109.2z" fill="" p-id="927"></path></svg>